<svg width="30" height="36" viewBox="0 0 30 36" fill="none" xmlns="http://www.w3.org/2000/svg">
<g clip-path="url(#clip0_19_492)">
<path d="M28.3716 12.2724C28.1628 12.4344 24.4764 14.5116 24.4764 19.1304C24.4764 24.4728 29.1672 26.3628 29.3076 26.4096C29.286 26.5248 28.5624 28.998 26.8344 31.518C25.2936 33.7356 23.6844 35.9496 21.2364 35.9496C18.7884 35.9496 18.1584 34.5276 15.3324 34.5276C12.5784 34.5276 11.5992 35.9964 9.36 35.9964C7.1208 35.9964 5.5584 33.9444 3.762 31.4244C1.6812 28.4652 0 23.868 0 19.5048C0 12.5064 4.5504 8.7948 9.0288 8.7948C11.4084 8.7948 13.392 10.3572 14.886 10.3572C16.308 10.3572 18.5256 8.7012 21.2328 8.7012C22.2588 8.7012 25.9452 8.7948 28.3716 12.2724ZM19.9476 5.7384C21.0672 4.41 21.8592 2.5668 21.8592 0.7236C21.8592 0.468 21.8376 0.2088 21.7908 0C19.9692 0.0684 17.802 1.2132 16.4952 2.7288C15.4692 3.8952 14.5116 5.7384 14.5116 7.6068C14.5116 7.8876 14.5584 8.1684 14.58 8.2584C14.6952 8.28 14.8824 8.3052 15.0696 8.3052C16.704 8.3052 18.7596 7.2108 19.9476 5.7384Z" fill="black"/>
</g>
<defs>
<clipPath id="clip0_19_492">
<rect width="29.304" height="36" fill="white"/>
</clipPath>
</defs>
</svg>
