<svg width="290" height="438" viewBox="0 0 290 438" fill="none" xmlns="http://www.w3.org/2000/svg">
<rect x="0.5" y="0.5" width="289" height="437" rx="21.5" stroke="white"/>
<path d="M104.717 98.5393L94.0691 89L104.717 79.4607C108.77 75.834 111 70.9984 111 65.8496C111 60.7007 108.77 55.8706 104.717 52.2384L77.6544 28H25V75.3669L40.212 88.9945L25 102.628V149.994H77.6544L104.717 125.751C108.77 122.124 111 117.288 111 112.139C111 106.991 108.77 102.161 104.717 98.5338V98.5393ZM42.3977 89L54.7705 77.9166L67.1433 66.8332L78.5441 77.0484L91.8889 89.0055L76.4188 102.864L67.1433 111.172L54.7705 100.089L42.3977 89.0055V89ZM77.1217 29.4782L103.784 53.3594C107.518 56.7059 109.572 61.1403 109.572 65.8496C109.572 70.5588 107.513 74.9987 103.784 78.3397L92.9817 88.0164L27.6305 29.4782H77.1217ZM26.4278 74.6965V30.3574L66.0504 65.8551L53.6777 76.9385L41.3049 88.0219L26.4278 74.6965ZM26.4278 103.309L41.3049 89.9781L53.6777 101.062L66.0504 112.145L26.4278 147.643V103.303V103.309ZM103.784 124.641L77.1217 148.522H27.6305L92.9817 89.9781L103.784 99.6548C107.518 103.001 109.572 107.436 109.572 112.145C109.572 116.854 107.513 121.294 103.784 124.635V124.641Z" fill="#F1F2F2"/>
<path d="M233.496 380.184C233.235 380.382 232.983 380.578 232.738 380.791C228.495 384.383 225.828 389.639 225.828 395.5C225.828 401.361 228.493 406.617 232.712 410.19L232.736 410.209C232.979 410.42 233.237 410.624 233.493 410.82C233.754 410.626 234.006 410.42 234.251 410.209C238.494 406.617 241.159 401.361 241.159 395.5C241.159 389.639 238.494 384.383 234.275 380.81L234.251 380.791C234.008 380.58 233.752 380.38 233.493 380.184H233.496ZM245.913 376.002C245.902 376.002 245.889 376.002 245.874 376.002C241.743 376.002 237.908 377.218 234.722 379.301L234.794 379.257C234.956 379.381 235.104 379.512 235.239 379.649L235.241 379.651C239.833 383.519 242.72 389.19 242.72 395.517C242.72 401.829 239.849 407.487 235.304 411.332L235.278 411.353C235.121 411.482 234.952 411.61 234.787 411.737C237.915 413.78 241.767 415 245.911 415C257.006 415 266 406.27 266 395.5C266 384.73 257.008 376.004 245.913 376.002ZM231.716 411.355C231.872 411.484 232.041 411.612 232.206 411.739C229.081 413.78 225.231 414.998 221.087 414.998C209.992 414.998 201 406.268 201 395.5C201 384.732 209.994 376.002 221.087 376.002C225.226 376.002 229.074 377.218 232.272 379.301L232.2 379.257C232.037 379.381 231.89 379.512 231.755 379.649L231.753 379.651C227.16 383.519 224.274 389.19 224.274 395.517C224.274 401.829 227.145 407.487 231.69 411.332L231.716 411.355Z" fill="white"/>
</svg>
