<svg width="290" height="438" viewBox="0 0 290 438" fill="none" xmlns="http://www.w3.org/2000/svg">
<rect x="0.5" y="0.5" width="289" height="437" rx="21.5" stroke="white"/>
<path d="M104.717 98.5393L94.0691 89L104.717 79.4607C108.77 75.834 111 70.9984 111 65.8496C111 60.7007 108.77 55.8706 104.717 52.2384L77.6544 28H25V75.3669L40.212 88.9945L25 102.628V149.994H77.6544L104.717 125.751C108.77 122.124 111 117.288 111 112.139C111 106.991 108.77 102.161 104.717 98.5338V98.5393ZM42.3977 89L54.7705 77.9166L67.1433 66.8332L78.5441 77.0484L91.8889 89.0055L76.4188 102.864L67.1433 111.172L54.7705 100.089L42.3977 89.0055V89ZM77.1217 29.4782L103.784 53.3594C107.518 56.7059 109.572 61.1403 109.572 65.8496C109.572 70.5588 107.513 74.9987 103.784 78.3397L92.9817 88.0164L27.6305 29.4782H77.1217ZM26.4278 74.6965V30.3574L66.0504 65.8551L53.6777 76.9385L41.3049 88.0219L26.4278 74.6965ZM26.4278 103.309L41.3049 89.9781L53.6777 101.062L66.0504 112.145L26.4278 147.643V103.303V103.309ZM103.784 124.641L77.1217 148.522H27.6305L92.9817 89.9781L103.784 99.6548C107.518 103.001 109.572 107.436 109.572 112.145C109.572 116.854 107.513 121.294 103.784 124.635V124.641Z" fill="#F1F2F2"/>
<path d="M237.336 384.024C235.407 383.333 233.368 382.987 231.315 383C224.676 383 219.988 386.287 219.954 391.006C219.913 394.472 223.286 396.426 225.838 397.584C228.456 398.775 229.332 399.525 229.324 400.59C229.307 402.209 227.232 402.943 225.303 402.943C222.651 402.943 221.203 402.58 218.975 401.671L218.149 401.291L217.207 406.724C218.822 407.384 221.73 407.951 224.734 408C231.793 408 236.407 404.733 236.461 399.713C236.519 396.944 234.693 394.852 230.851 393.123C228.515 392.001 227.066 391.251 227.066 390.113C227.066 389.106 228.307 388.029 230.9 388.029C232.626 387.988 234.342 388.306 235.934 388.963L236.556 389.236L237.498 383.987L237.336 384.024ZM254.564 383.441H249.378C247.763 383.441 246.548 383.877 245.842 385.451L235.867 407.662H242.925L244.336 404.02L252.95 404.028C253.154 404.88 253.776 407.662 253.776 407.662H260L254.564 383.441ZM210.407 383.237H217.133L212.925 407.47H206.207L210.407 383.229V383.237ZM193.332 396.593L194.029 399.958L200.602 383.441H207.726L197.141 407.629H190.033L184.224 387.148C184.13 386.81 183.909 386.52 183.606 386.336C181.512 385.273 179.294 384.467 177 383.934L177.091 383.425H187.917C189.386 383.482 190.568 383.934 190.963 385.476L193.328 396.605L193.332 396.593ZM246.266 399.065L248.946 392.287C248.913 392.36 249.498 390.888 249.838 389.978L250.299 392.07L251.855 399.061H246.261L246.266 399.065Z" fill="white"/>
</svg>
